<mxfile host="app.diagrams.net" modified="2021-05-11T13:26:23.511Z" agent="5.0 (Windows NT 10.0; Win64; x64) AppleWebKit/537.36 (KHTML, like Gecko) Chrome/90.0.4430.93 Safari/537.36" etag="bqKXnrw49G-uYZKlO96-" version="14.6.11" type="github">
  <diagram id="c4hljf-op57V5p_WFwa3" name="Page-1">
    <mxGraphModel dx="782" dy="478" grid="1" gridSize="10" guides="1" tooltips="1" connect="1" arrows="1" fold="1" page="1" pageScale="1" pageWidth="850" pageHeight="1100" math="0" shadow="0">
      <root>
        <mxCell id="0" />
        <mxCell id="1" parent="0" />
        <mxCell id="8QlNRYFuqzHitPFtihIb-22" value="&lt;span style=&quot;font-size: 24px&quot;&gt;L&lt;br&gt;o&lt;br&gt;c&lt;br&gt;a&lt;br&gt;l&lt;br&gt;&lt;br&gt;C&lt;/span&gt;&lt;br style=&quot;font-size: 24px&quot;&gt;&lt;span style=&quot;font-size: 24px&quot;&gt;D&lt;/span&gt;&lt;br style=&quot;font-size: 24px&quot;&gt;&lt;span style=&quot;font-size: 24px&quot;&gt;T&lt;/span&gt;" style="rounded=0;whiteSpace=wrap;html=1;fontStyle=1;strokeWidth=3;" parent="1" vertex="1">
          <mxGeometry x="125" y="120" width="80" height="360" as="geometry" />
        </mxCell>
        <mxCell id="8QlNRYFuqzHitPFtihIb-60" style="edgeStyle=orthogonalEdgeStyle;rounded=0;orthogonalLoop=1;jettySize=auto;html=1;exitX=0.5;exitY=1;exitDx=0;exitDy=0;startArrow=block;startFill=1;endArrow=none;endFill=0;shape=flexArrow;fontStyle=1" parent="1" source="8QlNRYFuqzHitPFtihIb-23" edge="1">
          <mxGeometry relative="1" as="geometry">
            <mxPoint x="225" y="520" as="targetPoint" />
            <Array as="points">
              <mxPoint x="225" y="500" />
              <mxPoint x="225" y="500" />
            </Array>
          </mxGeometry>
        </mxCell>
        <mxCell id="8QlNRYFuqzHitPFtihIb-23" value="&lt;span style=&quot;font-size: 24px&quot;&gt;A&lt;/span&gt;&lt;br style=&quot;font-size: 24px&quot;&gt;&lt;span style=&quot;font-size: 24px&quot;&gt;D&lt;/span&gt;&lt;br style=&quot;font-size: 24px&quot;&gt;&lt;span style=&quot;font-size: 24px&quot;&gt;C&lt;/span&gt;" style="rounded=0;whiteSpace=wrap;html=1;fontStyle=1" parent="1" vertex="1">
          <mxGeometry x="205" y="120" width="40" height="360" as="geometry" />
        </mxCell>
        <mxCell id="8QlNRYFuqzHitPFtihIb-61" style="edgeStyle=orthogonalEdgeStyle;rounded=0;orthogonalLoop=1;jettySize=auto;html=1;exitX=0.5;exitY=1;exitDx=0;exitDy=0;startArrow=block;startFill=1;endArrow=none;endFill=0;shape=flexArrow;fontStyle=1" parent="1" source="8QlNRYFuqzHitPFtihIb-24" edge="1">
          <mxGeometry relative="1" as="geometry">
            <mxPoint x="265" y="520" as="targetPoint" />
          </mxGeometry>
        </mxCell>
        <mxCell id="8QlNRYFuqzHitPFtihIb-24" value="&lt;span style=&quot;font-size: 24px&quot;&gt;A&lt;/span&gt;&lt;br style=&quot;font-size: 24px&quot;&gt;&lt;span style=&quot;font-size: 24px&quot;&gt;D&lt;/span&gt;&lt;br style=&quot;font-size: 24px&quot;&gt;&lt;span style=&quot;font-size: 24px&quot;&gt;C&lt;/span&gt;" style="rounded=0;whiteSpace=wrap;html=1;fontStyle=1" parent="1" vertex="1">
          <mxGeometry x="245" y="120" width="40" height="360" as="geometry" />
        </mxCell>
        <mxCell id="8QlNRYFuqzHitPFtihIb-63" style="edgeStyle=orthogonalEdgeStyle;rounded=0;orthogonalLoop=1;jettySize=auto;html=1;exitX=0.5;exitY=1;exitDx=0;exitDy=0;startArrow=block;startFill=1;endArrow=none;endFill=0;shape=flexArrow;fontStyle=1" parent="1" source="8QlNRYFuqzHitPFtihIb-25" edge="1">
          <mxGeometry relative="1" as="geometry">
            <mxPoint x="305" y="520" as="targetPoint" />
          </mxGeometry>
        </mxCell>
        <mxCell id="8QlNRYFuqzHitPFtihIb-25" value="&lt;span style=&quot;font-size: 24px&quot;&gt;A&lt;/span&gt;&lt;br style=&quot;font-size: 24px&quot;&gt;&lt;span style=&quot;font-size: 24px&quot;&gt;D&lt;/span&gt;&lt;br style=&quot;font-size: 24px&quot;&gt;&lt;span style=&quot;font-size: 24px&quot;&gt;C&lt;/span&gt;" style="rounded=0;whiteSpace=wrap;html=1;fontStyle=1" parent="1" vertex="1">
          <mxGeometry x="285" y="120" width="40" height="360" as="geometry" />
        </mxCell>
        <mxCell id="8QlNRYFuqzHitPFtihIb-64" style="edgeStyle=orthogonalEdgeStyle;rounded=0;orthogonalLoop=1;jettySize=auto;html=1;exitX=0.5;exitY=1;exitDx=0;exitDy=0;startArrow=block;startFill=1;endArrow=none;endFill=0;shape=flexArrow;fontStyle=1" parent="1" source="8QlNRYFuqzHitPFtihIb-26" edge="1">
          <mxGeometry relative="1" as="geometry">
            <mxPoint x="345" y="520" as="targetPoint" />
          </mxGeometry>
        </mxCell>
        <mxCell id="8QlNRYFuqzHitPFtihIb-26" value="&lt;span style=&quot;font-size: 24px&quot;&gt;A&lt;/span&gt;&lt;br style=&quot;font-size: 24px&quot;&gt;&lt;span style=&quot;font-size: 24px&quot;&gt;D&lt;/span&gt;&lt;br style=&quot;font-size: 24px&quot;&gt;&lt;span style=&quot;font-size: 24px&quot;&gt;C&lt;/span&gt;" style="rounded=0;whiteSpace=wrap;html=1;fontStyle=1" parent="1" vertex="1">
          <mxGeometry x="325" y="120" width="40" height="360" as="geometry" />
        </mxCell>
        <mxCell id="8QlNRYFuqzHitPFtihIb-65" style="edgeStyle=orthogonalEdgeStyle;rounded=0;orthogonalLoop=1;jettySize=auto;html=1;exitX=0.5;exitY=1;exitDx=0;exitDy=0;startArrow=block;startFill=1;endArrow=none;endFill=0;shape=flexArrow;fontStyle=1" parent="1" source="8QlNRYFuqzHitPFtihIb-27" edge="1">
          <mxGeometry relative="1" as="geometry">
            <mxPoint x="385" y="520" as="targetPoint" />
          </mxGeometry>
        </mxCell>
        <mxCell id="8QlNRYFuqzHitPFtihIb-27" value="&lt;span style=&quot;font-size: 24px&quot;&gt;A&lt;/span&gt;&lt;br style=&quot;font-size: 24px&quot;&gt;&lt;span style=&quot;font-size: 24px&quot;&gt;D&lt;/span&gt;&lt;br style=&quot;font-size: 24px&quot;&gt;&lt;span style=&quot;font-size: 24px&quot;&gt;C&lt;/span&gt;" style="rounded=0;whiteSpace=wrap;html=1;fontStyle=1" parent="1" vertex="1">
          <mxGeometry x="365" y="120" width="40" height="360" as="geometry" />
        </mxCell>
        <mxCell id="8QlNRYFuqzHitPFtihIb-66" style="edgeStyle=orthogonalEdgeStyle;rounded=0;orthogonalLoop=1;jettySize=auto;html=1;exitX=0.5;exitY=1;exitDx=0;exitDy=0;startArrow=block;startFill=1;endArrow=none;endFill=0;shape=flexArrow;fontStyle=1" parent="1" source="8QlNRYFuqzHitPFtihIb-28" edge="1">
          <mxGeometry relative="1" as="geometry">
            <mxPoint x="425" y="520" as="targetPoint" />
          </mxGeometry>
        </mxCell>
        <mxCell id="8QlNRYFuqzHitPFtihIb-28" value="&lt;span style=&quot;font-size: 24px&quot;&gt;A&lt;/span&gt;&lt;br style=&quot;font-size: 24px&quot;&gt;&lt;span style=&quot;font-size: 24px&quot;&gt;D&lt;/span&gt;&lt;br style=&quot;font-size: 24px&quot;&gt;&lt;span style=&quot;font-size: 24px&quot;&gt;C&lt;/span&gt;" style="rounded=0;whiteSpace=wrap;html=1;fontStyle=1" parent="1" vertex="1">
          <mxGeometry x="405" y="120" width="40" height="360" as="geometry" />
        </mxCell>
        <mxCell id="8QlNRYFuqzHitPFtihIb-67" style="edgeStyle=orthogonalEdgeStyle;rounded=0;orthogonalLoop=1;jettySize=auto;html=1;exitX=0.5;exitY=1;exitDx=0;exitDy=0;startArrow=block;startFill=1;endArrow=none;endFill=0;shape=flexArrow;fontStyle=1" parent="1" source="8QlNRYFuqzHitPFtihIb-29" edge="1">
          <mxGeometry relative="1" as="geometry">
            <mxPoint x="465" y="520" as="targetPoint" />
          </mxGeometry>
        </mxCell>
        <mxCell id="8QlNRYFuqzHitPFtihIb-29" value="&lt;span style=&quot;font-size: 24px&quot;&gt;A&lt;/span&gt;&lt;br style=&quot;font-size: 24px&quot;&gt;&lt;span style=&quot;font-size: 24px&quot;&gt;D&lt;/span&gt;&lt;br style=&quot;font-size: 24px&quot;&gt;&lt;span style=&quot;font-size: 24px&quot;&gt;C&lt;/span&gt;" style="rounded=0;whiteSpace=wrap;html=1;fontStyle=1" parent="1" vertex="1">
          <mxGeometry x="445" y="120" width="40" height="360" as="geometry" />
        </mxCell>
        <mxCell id="8QlNRYFuqzHitPFtihIb-68" style="edgeStyle=orthogonalEdgeStyle;rounded=0;orthogonalLoop=1;jettySize=auto;html=1;exitX=0.5;exitY=1;exitDx=0;exitDy=0;startArrow=block;startFill=1;endArrow=none;endFill=0;shape=flexArrow;fontStyle=1" parent="1" source="8QlNRYFuqzHitPFtihIb-30" edge="1">
          <mxGeometry relative="1" as="geometry">
            <mxPoint x="505" y="520" as="targetPoint" />
          </mxGeometry>
        </mxCell>
        <mxCell id="8QlNRYFuqzHitPFtihIb-30" value="&lt;span style=&quot;font-size: 24px&quot;&gt;A&lt;/span&gt;&lt;br style=&quot;font-size: 24px&quot;&gt;&lt;span style=&quot;font-size: 24px&quot;&gt;D&lt;/span&gt;&lt;br style=&quot;font-size: 24px&quot;&gt;&lt;span style=&quot;font-size: 24px&quot;&gt;C&lt;/span&gt;" style="rounded=0;whiteSpace=wrap;html=1;fontStyle=1" parent="1" vertex="1">
          <mxGeometry x="485" y="120" width="40" height="360" as="geometry" />
        </mxCell>
        <mxCell id="8QlNRYFuqzHitPFtihIb-69" style="edgeStyle=orthogonalEdgeStyle;rounded=0;orthogonalLoop=1;jettySize=auto;html=1;exitX=0.5;exitY=1;exitDx=0;exitDy=0;startArrow=block;startFill=1;endArrow=none;endFill=0;shape=flexArrow;fontStyle=1" parent="1" source="8QlNRYFuqzHitPFtihIb-31" edge="1">
          <mxGeometry relative="1" as="geometry">
            <mxPoint x="545" y="520" as="targetPoint" />
          </mxGeometry>
        </mxCell>
        <mxCell id="8QlNRYFuqzHitPFtihIb-31" value="&lt;span style=&quot;font-size: 24px&quot;&gt;A&lt;/span&gt;&lt;br style=&quot;font-size: 24px&quot;&gt;&lt;span style=&quot;font-size: 24px&quot;&gt;D&lt;/span&gt;&lt;br style=&quot;font-size: 24px&quot;&gt;&lt;span style=&quot;font-size: 24px&quot;&gt;C&lt;/span&gt;" style="rounded=0;whiteSpace=wrap;html=1;fontStyle=1" parent="1" vertex="1">
          <mxGeometry x="525" y="120" width="40" height="360" as="geometry" />
        </mxCell>
        <mxCell id="8QlNRYFuqzHitPFtihIb-70" style="edgeStyle=orthogonalEdgeStyle;rounded=0;orthogonalLoop=1;jettySize=auto;html=1;exitX=0.5;exitY=1;exitDx=0;exitDy=0;startArrow=block;startFill=1;endArrow=none;endFill=0;shape=flexArrow;fontStyle=1" parent="1" source="8QlNRYFuqzHitPFtihIb-32" edge="1">
          <mxGeometry relative="1" as="geometry">
            <mxPoint x="585" y="520" as="targetPoint" />
          </mxGeometry>
        </mxCell>
        <mxCell id="8QlNRYFuqzHitPFtihIb-32" value="&lt;span style=&quot;font-size: 24px&quot;&gt;A&lt;/span&gt;&lt;br style=&quot;font-size: 24px&quot;&gt;&lt;span style=&quot;font-size: 24px&quot;&gt;D&lt;/span&gt;&lt;br style=&quot;font-size: 24px&quot;&gt;&lt;span style=&quot;font-size: 24px&quot;&gt;C&lt;/span&gt;" style="rounded=0;whiteSpace=wrap;html=1;fontStyle=1" parent="1" vertex="1">
          <mxGeometry x="565" y="120" width="40" height="360" as="geometry" />
        </mxCell>
        <mxCell id="8QlNRYFuqzHitPFtihIb-71" style="edgeStyle=orthogonalEdgeStyle;rounded=0;orthogonalLoop=1;jettySize=auto;html=1;exitX=0.5;exitY=1;exitDx=0;exitDy=0;startArrow=block;startFill=1;endArrow=none;endFill=0;shape=flexArrow;fontStyle=1" parent="1" source="8QlNRYFuqzHitPFtihIb-33" edge="1">
          <mxGeometry relative="1" as="geometry">
            <mxPoint x="625" y="520" as="targetPoint" />
          </mxGeometry>
        </mxCell>
        <mxCell id="8QlNRYFuqzHitPFtihIb-33" value="&lt;span style=&quot;font-size: 24px&quot;&gt;A&lt;/span&gt;&lt;br style=&quot;font-size: 24px&quot;&gt;&lt;span style=&quot;font-size: 24px&quot;&gt;D&lt;/span&gt;&lt;br style=&quot;font-size: 24px&quot;&gt;&lt;span style=&quot;font-size: 24px&quot;&gt;C&lt;/span&gt;" style="rounded=0;whiteSpace=wrap;html=1;fontStyle=1" parent="1" vertex="1">
          <mxGeometry x="605" y="120" width="40" height="360" as="geometry" />
        </mxCell>
        <mxCell id="8QlNRYFuqzHitPFtihIb-72" style="edgeStyle=orthogonalEdgeStyle;rounded=0;orthogonalLoop=1;jettySize=auto;html=1;exitX=0.5;exitY=1;exitDx=0;exitDy=0;startArrow=block;startFill=1;endArrow=none;endFill=0;shape=flexArrow;fontStyle=1" parent="1" source="8QlNRYFuqzHitPFtihIb-34" edge="1">
          <mxGeometry relative="1" as="geometry">
            <mxPoint x="665" y="520" as="targetPoint" />
          </mxGeometry>
        </mxCell>
        <mxCell id="8QlNRYFuqzHitPFtihIb-34" value="&lt;span style=&quot;font-size: 24px&quot;&gt;A&lt;/span&gt;&lt;br style=&quot;font-size: 24px&quot;&gt;&lt;span style=&quot;font-size: 24px&quot;&gt;D&lt;/span&gt;&lt;br style=&quot;font-size: 24px&quot;&gt;&lt;span style=&quot;font-size: 24px&quot;&gt;C&lt;/span&gt;" style="rounded=0;whiteSpace=wrap;html=1;fontStyle=1" parent="1" vertex="1">
          <mxGeometry x="645" y="120" width="40" height="360" as="geometry" />
        </mxCell>
        <mxCell id="8QlNRYFuqzHitPFtihIb-73" style="edgeStyle=orthogonalEdgeStyle;rounded=0;orthogonalLoop=1;jettySize=auto;html=1;exitX=0.5;exitY=1;exitDx=0;exitDy=0;startArrow=block;startFill=1;endArrow=none;endFill=0;shape=flexArrow;fontStyle=1" parent="1" source="8QlNRYFuqzHitPFtihIb-35" edge="1">
          <mxGeometry relative="1" as="geometry">
            <mxPoint x="705" y="520" as="targetPoint" />
          </mxGeometry>
        </mxCell>
        <mxCell id="8QlNRYFuqzHitPFtihIb-35" value="&lt;span style=&quot;font-size: 24px&quot;&gt;A&lt;/span&gt;&lt;br style=&quot;font-size: 24px&quot;&gt;&lt;span style=&quot;font-size: 24px&quot;&gt;D&lt;/span&gt;&lt;br style=&quot;font-size: 24px&quot;&gt;&lt;span style=&quot;font-size: 24px&quot;&gt;C&lt;/span&gt;" style="rounded=0;whiteSpace=wrap;html=1;fontStyle=1" parent="1" vertex="1">
          <mxGeometry x="685" y="120" width="40" height="360" as="geometry" />
        </mxCell>
        <mxCell id="8QlNRYFuqzHitPFtihIb-74" style="edgeStyle=orthogonalEdgeStyle;rounded=0;orthogonalLoop=1;jettySize=auto;html=1;exitX=0.5;exitY=1;exitDx=0;exitDy=0;startArrow=block;startFill=1;endArrow=none;endFill=0;shape=flexArrow;fontStyle=1" parent="1" source="8QlNRYFuqzHitPFtihIb-36" edge="1">
          <mxGeometry relative="1" as="geometry">
            <mxPoint x="745" y="520" as="targetPoint" />
          </mxGeometry>
        </mxCell>
        <mxCell id="8QlNRYFuqzHitPFtihIb-36" value="&lt;span style=&quot;font-size: 24px&quot;&gt;A&lt;/span&gt;&lt;br style=&quot;font-size: 24px&quot;&gt;&lt;span style=&quot;font-size: 24px&quot;&gt;D&lt;/span&gt;&lt;br style=&quot;font-size: 24px&quot;&gt;&lt;span style=&quot;font-size: 24px&quot;&gt;C&lt;/span&gt;" style="rounded=0;whiteSpace=wrap;html=1;fontStyle=1" parent="1" vertex="1">
          <mxGeometry x="725" y="120" width="40" height="360" as="geometry" />
        </mxCell>
        <mxCell id="8QlNRYFuqzHitPFtihIb-75" style="edgeStyle=orthogonalEdgeStyle;rounded=0;orthogonalLoop=1;jettySize=auto;html=1;exitX=0.5;exitY=1;exitDx=0;exitDy=0;startArrow=block;startFill=1;endArrow=none;endFill=0;shape=flexArrow;fontStyle=1" parent="1" source="8QlNRYFuqzHitPFtihIb-37" edge="1">
          <mxGeometry relative="1" as="geometry">
            <mxPoint x="785" y="520" as="targetPoint" />
          </mxGeometry>
        </mxCell>
        <mxCell id="8QlNRYFuqzHitPFtihIb-37" value="&lt;span style=&quot;font-size: 24px&quot;&gt;A&lt;/span&gt;&lt;br style=&quot;font-size: 24px&quot;&gt;&lt;span style=&quot;font-size: 24px&quot;&gt;D&lt;/span&gt;&lt;br style=&quot;font-size: 24px&quot;&gt;&lt;span style=&quot;font-size: 24px&quot;&gt;C&lt;/span&gt;" style="rounded=0;whiteSpace=wrap;html=1;fontStyle=1" parent="1" vertex="1">
          <mxGeometry x="765" y="120" width="40" height="360" as="geometry" />
        </mxCell>
        <mxCell id="8QlNRYFuqzHitPFtihIb-76" style="edgeStyle=orthogonalEdgeStyle;rounded=0;orthogonalLoop=1;jettySize=auto;html=1;exitX=0.5;exitY=1;exitDx=0;exitDy=0;startArrow=block;startFill=1;endArrow=none;endFill=0;shape=flexArrow;fontStyle=1" parent="1" source="8QlNRYFuqzHitPFtihIb-38" edge="1">
          <mxGeometry relative="1" as="geometry">
            <mxPoint x="825" y="520" as="targetPoint" />
          </mxGeometry>
        </mxCell>
        <mxCell id="8QlNRYFuqzHitPFtihIb-38" value="&lt;span style=&quot;font-size: 24px&quot;&gt;A&lt;/span&gt;&lt;br style=&quot;font-size: 24px&quot;&gt;&lt;span style=&quot;font-size: 24px&quot;&gt;D&lt;/span&gt;&lt;br style=&quot;font-size: 24px&quot;&gt;&lt;span style=&quot;font-size: 24px&quot;&gt;C&lt;/span&gt;" style="rounded=0;whiteSpace=wrap;html=1;fontStyle=1" parent="1" vertex="1">
          <mxGeometry x="805" y="120" width="40" height="360" as="geometry" />
        </mxCell>
        <mxCell id="8QlNRYFuqzHitPFtihIb-77" value="&lt;pre&gt;&lt;font style=&quot;font-size: 24px&quot;&gt;Detectors&lt;/font&gt;&lt;/pre&gt;" style="rounded=1;whiteSpace=wrap;html=1;fontStyle=1" parent="1" vertex="1">
          <mxGeometry x="205" y="520" width="640" height="60" as="geometry" />
        </mxCell>
        <mxCell id="8QlNRYFuqzHitPFtihIb-44" style="edgeStyle=orthogonalEdgeStyle;rounded=0;orthogonalLoop=1;jettySize=auto;html=1;fillColor=#e51400;strokeColor=#B20000;startArrow=oval;startFill=1;strokeWidth=1;fontStyle=1" parent="1" source="8QlNRYFuqzHitPFtihIb-23" edge="1">
          <mxGeometry relative="1" as="geometry">
            <mxPoint x="225" y="80" as="targetPoint" />
          </mxGeometry>
        </mxCell>
        <mxCell id="8QlNRYFuqzHitPFtihIb-45" style="edgeStyle=orthogonalEdgeStyle;rounded=0;orthogonalLoop=1;jettySize=auto;html=1;exitX=0.5;exitY=0;exitDx=0;exitDy=0;startArrow=oval;startFill=1;strokeWidth=1;fontStyle=1" parent="1" source="8QlNRYFuqzHitPFtihIb-24" edge="1">
          <mxGeometry relative="1" as="geometry">
            <mxPoint x="265" y="80" as="targetPoint" />
          </mxGeometry>
        </mxCell>
        <mxCell id="8QlNRYFuqzHitPFtihIb-46" style="edgeStyle=orthogonalEdgeStyle;rounded=0;orthogonalLoop=1;jettySize=auto;html=1;exitX=0.5;exitY=0;exitDx=0;exitDy=0;fillColor=#e51400;strokeColor=#B20000;startArrow=oval;startFill=1;strokeWidth=1;fontStyle=1" parent="1" source="8QlNRYFuqzHitPFtihIb-25" edge="1">
          <mxGeometry relative="1" as="geometry">
            <mxPoint x="305" y="80" as="targetPoint" />
          </mxGeometry>
        </mxCell>
        <mxCell id="8QlNRYFuqzHitPFtihIb-47" style="edgeStyle=orthogonalEdgeStyle;rounded=0;orthogonalLoop=1;jettySize=auto;html=1;exitX=0.5;exitY=0;exitDx=0;exitDy=0;fillColor=#e51400;strokeColor=#B20000;startArrow=oval;startFill=1;strokeWidth=1;fontStyle=1" parent="1" source="8QlNRYFuqzHitPFtihIb-26" edge="1">
          <mxGeometry relative="1" as="geometry">
            <mxPoint x="345" y="80" as="targetPoint" />
          </mxGeometry>
        </mxCell>
        <mxCell id="8QlNRYFuqzHitPFtihIb-48" style="edgeStyle=orthogonalEdgeStyle;rounded=0;orthogonalLoop=1;jettySize=auto;html=1;exitX=0.5;exitY=0;exitDx=0;exitDy=0;fillColor=#e51400;strokeColor=#B20000;startArrow=oval;startFill=1;strokeWidth=1;fontStyle=1" parent="1" source="8QlNRYFuqzHitPFtihIb-27" edge="1">
          <mxGeometry relative="1" as="geometry">
            <mxPoint x="385" y="80" as="targetPoint" />
          </mxGeometry>
        </mxCell>
        <mxCell id="8QlNRYFuqzHitPFtihIb-49" style="edgeStyle=orthogonalEdgeStyle;rounded=0;orthogonalLoop=1;jettySize=auto;html=1;exitX=0.5;exitY=0;exitDx=0;exitDy=0;fillColor=#e51400;strokeColor=#B20000;startArrow=oval;startFill=1;strokeWidth=1;fontStyle=1" parent="1" source="8QlNRYFuqzHitPFtihIb-28" edge="1">
          <mxGeometry relative="1" as="geometry">
            <mxPoint x="425" y="80" as="targetPoint" />
          </mxGeometry>
        </mxCell>
        <mxCell id="8QlNRYFuqzHitPFtihIb-50" style="edgeStyle=orthogonalEdgeStyle;rounded=0;orthogonalLoop=1;jettySize=auto;html=1;exitX=0.5;exitY=0;exitDx=0;exitDy=0;fillColor=#e51400;strokeColor=#B20000;startArrow=oval;startFill=1;strokeWidth=1;fontStyle=1" parent="1" source="8QlNRYFuqzHitPFtihIb-29" edge="1">
          <mxGeometry relative="1" as="geometry">
            <mxPoint x="465" y="80" as="targetPoint" />
          </mxGeometry>
        </mxCell>
        <mxCell id="8QlNRYFuqzHitPFtihIb-51" style="edgeStyle=orthogonalEdgeStyle;rounded=0;orthogonalLoop=1;jettySize=auto;html=1;exitX=0.5;exitY=0;exitDx=0;exitDy=0;fillColor=#e51400;strokeColor=#B20000;startArrow=oval;startFill=1;strokeWidth=1;fontStyle=1" parent="1" source="8QlNRYFuqzHitPFtihIb-30" edge="1">
          <mxGeometry relative="1" as="geometry">
            <mxPoint x="505" y="80" as="targetPoint" />
          </mxGeometry>
        </mxCell>
        <mxCell id="8QlNRYFuqzHitPFtihIb-52" style="edgeStyle=orthogonalEdgeStyle;rounded=0;orthogonalLoop=1;jettySize=auto;html=1;exitX=0.5;exitY=0;exitDx=0;exitDy=0;fillColor=#e51400;strokeColor=#B20000;startArrow=oval;startFill=1;strokeWidth=1;fontStyle=1" parent="1" source="8QlNRYFuqzHitPFtihIb-31" edge="1">
          <mxGeometry relative="1" as="geometry">
            <mxPoint x="545" y="80" as="targetPoint" />
          </mxGeometry>
        </mxCell>
        <mxCell id="8QlNRYFuqzHitPFtihIb-53" style="edgeStyle=orthogonalEdgeStyle;rounded=0;orthogonalLoop=1;jettySize=auto;html=1;exitX=0.5;exitY=0;exitDx=0;exitDy=0;fillColor=#e51400;strokeColor=#B20000;startArrow=oval;startFill=1;strokeWidth=1;fontStyle=1" parent="1" source="8QlNRYFuqzHitPFtihIb-32" edge="1">
          <mxGeometry relative="1" as="geometry">
            <mxPoint x="585" y="80" as="targetPoint" />
          </mxGeometry>
        </mxCell>
        <mxCell id="8QlNRYFuqzHitPFtihIb-54" style="edgeStyle=orthogonalEdgeStyle;rounded=0;orthogonalLoop=1;jettySize=auto;html=1;exitX=0.5;exitY=0;exitDx=0;exitDy=0;fillColor=#e51400;strokeColor=#B20000;startArrow=oval;startFill=1;strokeWidth=1;fontStyle=1" parent="1" source="8QlNRYFuqzHitPFtihIb-33" edge="1">
          <mxGeometry relative="1" as="geometry">
            <mxPoint x="625" y="80" as="targetPoint" />
          </mxGeometry>
        </mxCell>
        <mxCell id="8QlNRYFuqzHitPFtihIb-55" style="edgeStyle=orthogonalEdgeStyle;rounded=0;orthogonalLoop=1;jettySize=auto;html=1;exitX=0.5;exitY=0;exitDx=0;exitDy=0;fillColor=#e51400;strokeColor=#B20000;startArrow=oval;startFill=1;strokeWidth=1;fontStyle=1" parent="1" source="8QlNRYFuqzHitPFtihIb-34" edge="1">
          <mxGeometry relative="1" as="geometry">
            <mxPoint x="665" y="80" as="targetPoint" />
          </mxGeometry>
        </mxCell>
        <mxCell id="8QlNRYFuqzHitPFtihIb-56" style="edgeStyle=orthogonalEdgeStyle;rounded=0;orthogonalLoop=1;jettySize=auto;html=1;exitX=0.5;exitY=0;exitDx=0;exitDy=0;fillColor=#e51400;strokeColor=#B20000;startArrow=oval;startFill=1;strokeWidth=1;fontStyle=1" parent="1" source="8QlNRYFuqzHitPFtihIb-35" edge="1">
          <mxGeometry relative="1" as="geometry">
            <mxPoint x="705" y="80" as="targetPoint" />
          </mxGeometry>
        </mxCell>
        <mxCell id="8QlNRYFuqzHitPFtihIb-57" style="edgeStyle=orthogonalEdgeStyle;rounded=0;orthogonalLoop=1;jettySize=auto;html=1;exitX=0.5;exitY=0;exitDx=0;exitDy=0;fillColor=#e51400;strokeColor=#B20000;startArrow=oval;startFill=1;strokeWidth=1;fontStyle=1" parent="1" source="8QlNRYFuqzHitPFtihIb-36" edge="1">
          <mxGeometry relative="1" as="geometry">
            <mxPoint x="745" y="80" as="targetPoint" />
          </mxGeometry>
        </mxCell>
        <mxCell id="8QlNRYFuqzHitPFtihIb-58" style="edgeStyle=orthogonalEdgeStyle;rounded=0;orthogonalLoop=1;jettySize=auto;html=1;exitX=0.5;exitY=0;exitDx=0;exitDy=0;fillColor=#e51400;strokeColor=#B20000;startArrow=oval;startFill=1;strokeWidth=1;fontStyle=1" parent="1" source="8QlNRYFuqzHitPFtihIb-37" edge="1">
          <mxGeometry relative="1" as="geometry">
            <mxPoint x="785" y="80" as="targetPoint" />
          </mxGeometry>
        </mxCell>
        <mxCell id="8QlNRYFuqzHitPFtihIb-59" style="edgeStyle=orthogonalEdgeStyle;rounded=0;orthogonalLoop=1;jettySize=auto;html=1;exitX=0.5;exitY=0;exitDx=0;exitDy=0;fillColor=#e51400;strokeColor=#B20000;startArrow=oval;startFill=1;strokeWidth=1;fontStyle=1" parent="1" source="8QlNRYFuqzHitPFtihIb-38" edge="1">
          <mxGeometry relative="1" as="geometry">
            <mxPoint x="825" y="80" as="targetPoint" />
          </mxGeometry>
        </mxCell>
        <mxCell id="8QlNRYFuqzHitPFtihIb-130" style="edgeStyle=orthogonalEdgeStyle;rounded=0;orthogonalLoop=1;jettySize=auto;html=1;exitX=0.5;exitY=0;exitDx=0;exitDy=0;fillColor=#e51400;strokeColor=#B20000;startArrow=oval;startFill=1;strokeWidth=1;fontStyle=1" parent="1" edge="1">
          <mxGeometry relative="1" as="geometry">
            <mxPoint x="264.33000000000004" y="80" as="targetPoint" />
            <mxPoint x="264.33000000000004" y="120" as="sourcePoint" />
          </mxGeometry>
        </mxCell>
        <mxCell id="8QlNRYFuqzHitPFtihIb-140" style="edgeStyle=orthogonalEdgeStyle;rounded=0;orthogonalLoop=1;jettySize=auto;html=1;exitX=0.5;exitY=0;exitDx=0;exitDy=0;fillColor=#e51400;strokeColor=#B20000;startArrow=oval;startFill=1;strokeWidth=1;fontStyle=1" parent="1" edge="1">
          <mxGeometry relative="1" as="geometry">
            <mxPoint x="664.33" y="80" as="targetPoint" />
            <mxPoint x="664.33" y="120" as="sourcePoint" />
          </mxGeometry>
        </mxCell>
        <mxCell id="69VbU7b6xLRJc8Qlh2rl-3" value="" style="shape=flexArrow;endArrow=classic;html=1;strokeColor=#FF6666;opacity=60;fillColor=#FF6666;" parent="1" edge="1">
          <mxGeometry width="50" height="50" relative="1" as="geometry">
            <mxPoint x="830" y="180" as="sourcePoint" />
            <mxPoint x="180" y="180" as="targetPoint" />
          </mxGeometry>
        </mxCell>
        <mxCell id="69VbU7b6xLRJc8Qlh2rl-4" value="" style="endArrow=classic;html=1;strokeColor=#FF6666;fillColor=#FF6666;gradientColor=none;opacity=60;strokeWidth=2;" parent="1" edge="1">
          <mxGeometry width="50" height="50" relative="1" as="geometry">
            <mxPoint x="225" y="225" as="sourcePoint" />
            <mxPoint x="225" y="185" as="targetPoint" />
          </mxGeometry>
        </mxCell>
        <mxCell id="69VbU7b6xLRJc8Qlh2rl-5" value="" style="endArrow=classic;html=1;strokeColor=#FF6666;fillColor=#FF6666;gradientColor=none;opacity=60;strokeWidth=2;" parent="1" edge="1">
          <mxGeometry width="50" height="50" relative="1" as="geometry">
            <mxPoint x="265" y="225" as="sourcePoint" />
            <mxPoint x="265" y="185" as="targetPoint" />
          </mxGeometry>
        </mxCell>
        <mxCell id="69VbU7b6xLRJc8Qlh2rl-7" value="" style="endArrow=classic;html=1;strokeColor=#FF6666;fillColor=#FF6666;gradientColor=none;opacity=60;strokeWidth=2;" parent="1" edge="1">
          <mxGeometry width="50" height="50" relative="1" as="geometry">
            <mxPoint x="305" y="225" as="sourcePoint" />
            <mxPoint x="305" y="185" as="targetPoint" />
          </mxGeometry>
        </mxCell>
        <mxCell id="69VbU7b6xLRJc8Qlh2rl-8" value="" style="endArrow=classic;html=1;strokeColor=#FF6666;fillColor=#FF6666;gradientColor=none;opacity=60;strokeWidth=2;" parent="1" edge="1">
          <mxGeometry width="50" height="50" relative="1" as="geometry">
            <mxPoint x="345" y="225" as="sourcePoint" />
            <mxPoint x="345" y="185" as="targetPoint" />
          </mxGeometry>
        </mxCell>
        <mxCell id="69VbU7b6xLRJc8Qlh2rl-9" value="" style="endArrow=classic;html=1;strokeColor=#FF6666;fillColor=#FF6666;gradientColor=none;opacity=60;strokeWidth=2;" parent="1" edge="1">
          <mxGeometry width="50" height="50" relative="1" as="geometry">
            <mxPoint x="385" y="225" as="sourcePoint" />
            <mxPoint x="385" y="185" as="targetPoint" />
          </mxGeometry>
        </mxCell>
        <mxCell id="69VbU7b6xLRJc8Qlh2rl-10" value="" style="endArrow=classic;html=1;strokeColor=#FF6666;fillColor=#FF6666;gradientColor=none;opacity=60;strokeWidth=2;" parent="1" edge="1">
          <mxGeometry width="50" height="50" relative="1" as="geometry">
            <mxPoint x="425" y="225" as="sourcePoint" />
            <mxPoint x="425" y="185" as="targetPoint" />
          </mxGeometry>
        </mxCell>
        <mxCell id="69VbU7b6xLRJc8Qlh2rl-11" value="" style="endArrow=classic;html=1;strokeColor=#FF6666;fillColor=#FF6666;gradientColor=none;opacity=60;strokeWidth=2;" parent="1" edge="1">
          <mxGeometry width="50" height="50" relative="1" as="geometry">
            <mxPoint x="465" y="225" as="sourcePoint" />
            <mxPoint x="465" y="185" as="targetPoint" />
          </mxGeometry>
        </mxCell>
        <mxCell id="69VbU7b6xLRJc8Qlh2rl-12" value="" style="endArrow=classic;html=1;strokeColor=#FF6666;fillColor=#FF6666;gradientColor=none;opacity=60;strokeWidth=2;" parent="1" edge="1">
          <mxGeometry width="50" height="50" relative="1" as="geometry">
            <mxPoint x="505" y="225" as="sourcePoint" />
            <mxPoint x="505" y="185" as="targetPoint" />
          </mxGeometry>
        </mxCell>
        <mxCell id="69VbU7b6xLRJc8Qlh2rl-13" value="" style="endArrow=classic;html=1;strokeColor=#FF6666;fillColor=#FF6666;gradientColor=none;opacity=60;strokeWidth=2;" parent="1" edge="1">
          <mxGeometry width="50" height="50" relative="1" as="geometry">
            <mxPoint x="544.9999999999999" y="225" as="sourcePoint" />
            <mxPoint x="544.9999999999999" y="185" as="targetPoint" />
          </mxGeometry>
        </mxCell>
        <mxCell id="69VbU7b6xLRJc8Qlh2rl-14" value="" style="endArrow=classic;html=1;strokeColor=#FF6666;fillColor=#FF6666;gradientColor=none;opacity=60;strokeWidth=2;" parent="1" edge="1">
          <mxGeometry width="50" height="50" relative="1" as="geometry">
            <mxPoint x="584.9999999999999" y="225" as="sourcePoint" />
            <mxPoint x="584.9999999999999" y="185" as="targetPoint" />
          </mxGeometry>
        </mxCell>
        <mxCell id="69VbU7b6xLRJc8Qlh2rl-15" value="" style="endArrow=classic;html=1;strokeColor=#FF6666;fillColor=#FF6666;gradientColor=none;opacity=60;strokeWidth=2;" parent="1" edge="1">
          <mxGeometry width="50" height="50" relative="1" as="geometry">
            <mxPoint x="624.9999999999999" y="225" as="sourcePoint" />
            <mxPoint x="624.9999999999999" y="185" as="targetPoint" />
          </mxGeometry>
        </mxCell>
        <mxCell id="69VbU7b6xLRJc8Qlh2rl-16" value="" style="endArrow=classic;html=1;strokeColor=#FF6666;fillColor=#FF6666;gradientColor=none;opacity=60;strokeWidth=2;" parent="1" edge="1">
          <mxGeometry width="50" height="50" relative="1" as="geometry">
            <mxPoint x="664.9999999999999" y="225" as="sourcePoint" />
            <mxPoint x="664.9999999999999" y="185" as="targetPoint" />
          </mxGeometry>
        </mxCell>
        <mxCell id="69VbU7b6xLRJc8Qlh2rl-17" value="" style="endArrow=classic;html=1;strokeColor=#FF6666;fillColor=#FF6666;gradientColor=none;opacity=60;strokeWidth=2;" parent="1" edge="1">
          <mxGeometry width="50" height="50" relative="1" as="geometry">
            <mxPoint x="705" y="225" as="sourcePoint" />
            <mxPoint x="705" y="185" as="targetPoint" />
          </mxGeometry>
        </mxCell>
        <mxCell id="69VbU7b6xLRJc8Qlh2rl-18" value="" style="endArrow=classic;html=1;strokeColor=#FF6666;fillColor=#FF6666;gradientColor=none;opacity=60;strokeWidth=2;" parent="1" edge="1">
          <mxGeometry width="50" height="50" relative="1" as="geometry">
            <mxPoint x="745" y="225" as="sourcePoint" />
            <mxPoint x="745" y="185" as="targetPoint" />
          </mxGeometry>
        </mxCell>
        <mxCell id="69VbU7b6xLRJc8Qlh2rl-19" value="" style="endArrow=classic;html=1;strokeColor=#FF6666;fillColor=#FF6666;gradientColor=none;opacity=60;strokeWidth=2;" parent="1" edge="1">
          <mxGeometry width="50" height="50" relative="1" as="geometry">
            <mxPoint x="785" y="225" as="sourcePoint" />
            <mxPoint x="785" y="185" as="targetPoint" />
          </mxGeometry>
        </mxCell>
        <mxCell id="69VbU7b6xLRJc8Qlh2rl-20" value="" style="endArrow=classic;html=1;strokeColor=#FF6666;fillColor=#FF6666;gradientColor=none;opacity=60;strokeWidth=2;" parent="1" edge="1">
          <mxGeometry width="50" height="50" relative="1" as="geometry">
            <mxPoint x="825" y="225" as="sourcePoint" />
            <mxPoint x="825" y="185" as="targetPoint" />
          </mxGeometry>
        </mxCell>
        <mxCell id="69VbU7b6xLRJc8Qlh2rl-21" value="" style="shape=flexArrow;endArrow=classic;html=1;opacity=60;strokeColor=#007FFF;fillColor=#007FFF;" parent="1" edge="1">
          <mxGeometry width="50" height="50" relative="1" as="geometry">
            <mxPoint x="180" y="420" as="sourcePoint" />
            <mxPoint x="830" y="420" as="targetPoint" />
          </mxGeometry>
        </mxCell>
        <mxCell id="69VbU7b6xLRJc8Qlh2rl-22" value="" style="endArrow=classic;html=1;fillColor=#FF6666;gradientColor=none;opacity=60;strokeWidth=2;strokeColor=#007FFF;" parent="1" edge="1">
          <mxGeometry width="50" height="50" relative="1" as="geometry">
            <mxPoint x="224.9999999999999" y="415" as="sourcePoint" />
            <mxPoint x="224.9999999999999" y="375" as="targetPoint" />
          </mxGeometry>
        </mxCell>
        <mxCell id="69VbU7b6xLRJc8Qlh2rl-23" value="" style="endArrow=classic;html=1;fillColor=#FF6666;gradientColor=none;opacity=60;strokeWidth=2;strokeColor=#007FFF;" parent="1" edge="1">
          <mxGeometry width="50" height="50" relative="1" as="geometry">
            <mxPoint x="264.9999999999999" y="415" as="sourcePoint" />
            <mxPoint x="264.9999999999999" y="375" as="targetPoint" />
          </mxGeometry>
        </mxCell>
        <mxCell id="69VbU7b6xLRJc8Qlh2rl-24" value="" style="endArrow=classic;html=1;fillColor=#FF6666;gradientColor=none;opacity=60;strokeWidth=2;strokeColor=#007FFF;" parent="1" edge="1">
          <mxGeometry width="50" height="50" relative="1" as="geometry">
            <mxPoint x="304.9999999999999" y="415" as="sourcePoint" />
            <mxPoint x="304.9999999999999" y="375" as="targetPoint" />
          </mxGeometry>
        </mxCell>
        <mxCell id="69VbU7b6xLRJc8Qlh2rl-25" value="" style="endArrow=classic;html=1;fillColor=#FF6666;gradientColor=none;opacity=60;strokeWidth=2;strokeColor=#007FFF;" parent="1" edge="1">
          <mxGeometry width="50" height="50" relative="1" as="geometry">
            <mxPoint x="344.9999999999999" y="415" as="sourcePoint" />
            <mxPoint x="344.9999999999999" y="375" as="targetPoint" />
          </mxGeometry>
        </mxCell>
        <mxCell id="69VbU7b6xLRJc8Qlh2rl-26" value="" style="endArrow=classic;html=1;fillColor=#FF6666;gradientColor=none;opacity=60;strokeWidth=2;strokeColor=#007FFF;" parent="1" edge="1">
          <mxGeometry width="50" height="50" relative="1" as="geometry">
            <mxPoint x="385" y="415" as="sourcePoint" />
            <mxPoint x="385" y="375" as="targetPoint" />
          </mxGeometry>
        </mxCell>
        <mxCell id="69VbU7b6xLRJc8Qlh2rl-27" value="" style="endArrow=classic;html=1;fillColor=#FF6666;gradientColor=none;opacity=60;strokeWidth=2;strokeColor=#007FFF;" parent="1" edge="1">
          <mxGeometry width="50" height="50" relative="1" as="geometry">
            <mxPoint x="425" y="415" as="sourcePoint" />
            <mxPoint x="425" y="375" as="targetPoint" />
          </mxGeometry>
        </mxCell>
        <mxCell id="69VbU7b6xLRJc8Qlh2rl-28" value="" style="endArrow=classic;html=1;fillColor=#FF6666;gradientColor=none;opacity=60;strokeWidth=2;strokeColor=#007FFF;" parent="1" edge="1">
          <mxGeometry width="50" height="50" relative="1" as="geometry">
            <mxPoint x="465" y="415" as="sourcePoint" />
            <mxPoint x="465" y="375" as="targetPoint" />
          </mxGeometry>
        </mxCell>
        <mxCell id="69VbU7b6xLRJc8Qlh2rl-29" value="" style="endArrow=classic;html=1;fillColor=#FF6666;gradientColor=none;opacity=60;strokeWidth=2;strokeColor=#007FFF;" parent="1" edge="1">
          <mxGeometry width="50" height="50" relative="1" as="geometry">
            <mxPoint x="505" y="415" as="sourcePoint" />
            <mxPoint x="505" y="375" as="targetPoint" />
          </mxGeometry>
        </mxCell>
        <mxCell id="69VbU7b6xLRJc8Qlh2rl-30" value="" style="endArrow=classic;html=1;fillColor=#FF6666;gradientColor=none;opacity=60;strokeWidth=2;strokeColor=#007FFF;" parent="1" edge="1">
          <mxGeometry width="50" height="50" relative="1" as="geometry">
            <mxPoint x="545" y="415" as="sourcePoint" />
            <mxPoint x="545" y="375" as="targetPoint" />
          </mxGeometry>
        </mxCell>
        <mxCell id="69VbU7b6xLRJc8Qlh2rl-31" value="" style="endArrow=classic;html=1;fillColor=#FF6666;gradientColor=none;opacity=60;strokeWidth=2;strokeColor=#007FFF;" parent="1" edge="1">
          <mxGeometry width="50" height="50" relative="1" as="geometry">
            <mxPoint x="585" y="415" as="sourcePoint" />
            <mxPoint x="585" y="375" as="targetPoint" />
          </mxGeometry>
        </mxCell>
        <mxCell id="69VbU7b6xLRJc8Qlh2rl-32" value="" style="endArrow=classic;html=1;fillColor=#FF6666;gradientColor=none;opacity=60;strokeWidth=2;strokeColor=#007FFF;" parent="1" edge="1">
          <mxGeometry width="50" height="50" relative="1" as="geometry">
            <mxPoint x="625" y="415" as="sourcePoint" />
            <mxPoint x="625" y="375" as="targetPoint" />
          </mxGeometry>
        </mxCell>
        <mxCell id="69VbU7b6xLRJc8Qlh2rl-33" value="" style="endArrow=classic;html=1;fillColor=#FF6666;gradientColor=none;opacity=60;strokeWidth=2;strokeColor=#007FFF;" parent="1" edge="1">
          <mxGeometry width="50" height="50" relative="1" as="geometry">
            <mxPoint x="665" y="415" as="sourcePoint" />
            <mxPoint x="665" y="375" as="targetPoint" />
          </mxGeometry>
        </mxCell>
        <mxCell id="69VbU7b6xLRJc8Qlh2rl-34" value="" style="endArrow=classic;html=1;fillColor=#FF6666;gradientColor=none;opacity=60;strokeWidth=2;strokeColor=#007FFF;" parent="1" edge="1">
          <mxGeometry width="50" height="50" relative="1" as="geometry">
            <mxPoint x="705" y="415" as="sourcePoint" />
            <mxPoint x="705" y="375" as="targetPoint" />
          </mxGeometry>
        </mxCell>
        <mxCell id="69VbU7b6xLRJc8Qlh2rl-35" value="" style="endArrow=classic;html=1;fillColor=#FF6666;gradientColor=none;opacity=60;strokeWidth=2;strokeColor=#007FFF;" parent="1" edge="1">
          <mxGeometry width="50" height="50" relative="1" as="geometry">
            <mxPoint x="745" y="415" as="sourcePoint" />
            <mxPoint x="745" y="375" as="targetPoint" />
          </mxGeometry>
        </mxCell>
        <mxCell id="69VbU7b6xLRJc8Qlh2rl-36" value="" style="endArrow=classic;html=1;fillColor=#FF6666;gradientColor=none;opacity=60;strokeWidth=2;strokeColor=#007FFF;" parent="1" edge="1">
          <mxGeometry width="50" height="50" relative="1" as="geometry">
            <mxPoint x="785" y="415" as="sourcePoint" />
            <mxPoint x="785" y="375" as="targetPoint" />
          </mxGeometry>
        </mxCell>
        <mxCell id="69VbU7b6xLRJc8Qlh2rl-37" value="" style="endArrow=classic;html=1;fillColor=#FF6666;gradientColor=none;opacity=60;strokeWidth=2;strokeColor=#007FFF;" parent="1" edge="1">
          <mxGeometry width="50" height="50" relative="1" as="geometry">
            <mxPoint x="825" y="415" as="sourcePoint" />
            <mxPoint x="825" y="375" as="targetPoint" />
          </mxGeometry>
        </mxCell>
      </root>
    </mxGraphModel>
  </diagram>
</mxfile>
